<?xml version="1.0" encoding="UTF-8" standalone="no"?>
<!-- Created with Inkscape (http://www.inkscape.org/) -->

<svg
   xmlns:dc="http://purl.org/dc/elements/1.1/"
   xmlns:cc="http://creativecommons.org/ns#"
   xmlns:rdf="http://www.w3.org/1999/02/22-rdf-syntax-ns#"
   xmlns:svg="http://www.w3.org/2000/svg"
   xmlns="http://www.w3.org/2000/svg"
   xmlns:sodipodi="http://sodipodi.sourceforge.net/DTD/sodipodi-0.dtd"
   xmlns:inkscape="http://www.inkscape.org/namespaces/inkscape"
   id="svg3356"
   version="1.1"
   inkscape:version="0.91 r13725"
   width="218.4375"
   height="206.25"
   viewBox="0 0 218.4375 206.25"
   sodipodi:docname="EgyptianBird.svg">
  <metadata
     id="metadata3362">
    <rdf:RDF>
      <cc:Work
         rdf:about="">
        <dc:format>image/svg+xml</dc:format>
        <dc:type
           rdf:resource="http://purl.org/dc/dcmitype/StillImage" />
        <dc:title></dc:title>
      </cc:Work>
    </rdf:RDF>
  </metadata>
  <defs
     id="defs3360" />
  <sodipodi:namedview
     pagecolor="#ffffff"
     bordercolor="#666666"
     borderopacity="1"
     objecttolerance="10"
     gridtolerance="10"
     guidetolerance="10"
     inkscape:pageopacity="0"
     inkscape:pageshadow="2"
     inkscape:window-width="1600"
     inkscape:window-height="837"
     id="namedview3358"
     showgrid="false"
     inkscape:zoom="3.2484848"
     inkscape:cx="109.21875"
     inkscape:cy="103.125"
     inkscape:window-x="-8"
     inkscape:window-y="-8"
     inkscape:window-maximized="1"
     inkscape:current-layer="svg3356" />
  <path
     style="fill:#000000"
     d="m 57.223847,204.44291 c -1.166299,-2.17924 -0.457975,-4.3875 1.676765,-5.22745 0.862475,-0.33935 5.57595,-0.81241 10.474388,-1.05124 4.898437,-0.23883 10.658446,-0.64634 12.800017,-0.90558 l 3.893769,-0.47135 1.081471,-7.69052 c 0.781196,-5.55521 0.8174,-10.94428 0.130392,-19.40927 -0.948762,-11.69018 -0.95899,-11.72603 -4.196782,-14.70921 -4.991819,-4.59925 -10.717725,-5.66176 -18.594346,-3.45043 -1.773026,0.49778 -7.696822,8.6419 -13.379274,18.39401 -2.028031,3.48047 -4.021548,6.32813 -4.430037,6.32813 -0.40849,0 -0.74271,0.55091 -0.74271,1.22425 0,1.55462 -8.529549,14.66976 -10.884765,16.73654 -2.211897,1.94101 -32.7245942,4.42985 -34.35241488,2.80203 -0.67383337,-0.67384 0.19092779,-2.94049 2.80522438,-7.35285 2.0786423,-3.50829 5.2408777,-9.12091 7.0271905,-12.47247 1.786312,-3.35156 4.216675,-7.78125 5.400807,-9.84375 1.184131,-2.0625 3.547922,-6.4084 5.252869,-9.65757 1.704946,-3.24916 3.954044,-6.62416 4.997995,-7.5 1.043951,-0.87583 4.457232,-6.64196 7.585068,-12.81361 3.127835,-6.17165 6.212953,-11.86696 6.855814,-12.65625 0.642863,-0.78929 2.363267,-4.17726 3.823121,-7.52882 1.459852,-3.35156 2.963685,-6.72825 3.341849,-7.50375 0.378164,-0.77549 1.404357,-4.2681 2.28043,-7.76135 C 54.990125,82.30667 70.294183,54.23746 83.498363,40.612622 89.581817,34.335362 103.71887,28.148179 112.03125,28.125 c 6.60933,-0.01843 10.69662,-1.64085 11.32452,-4.495174 1.50057,-6.821364 3.34469,-12.379826 4.10725,-12.379826 0.46647,0 1.12022,-0.857305 1.45279,-1.905123 1.06254,-3.3477567 4.93286,-6.3371672 10.17914,-7.8623038 6.74875,-1.96191286 9.72333,-1.872962 18.02432,0.5389929 7.6782,2.2309939 12.7131,6.1649225 15.0507,11.7595909 1.63148,3.90466 3.29408,4.545758 13.92378,5.368999 8.42077,0.652164 16.0692,2.663645 20.27619,5.332485 1.22309,0.77591 3.7142,2.100101 5.53578,2.942648 2.3054,1.066324 3.83301,2.712854 5.02634,5.417595 2.31799,5.253837 0.8728,6.865739 -3.35391,3.740798 -4.10897,-3.03789 -18.92487,-5.743632 -25.5217,-4.660882 -11.41711,1.87391 -11.9207,2.534565 -9.93878,13.038328 1.34081,7.10603 0.4879,11.415044 -3.25506,16.445122 -1.15105,1.546875 -2.39289,3.761719 -2.75964,4.921875 -0.36675,1.160156 -1.08768,2.109375 -1.60206,2.109375 -0.51437,0 -3.14414,2.214844 -5.84391,4.921875 -5.92928,5.945193 -8.21622,7.901541 -13.7195,11.736267 -9.42634,6.568338 -10.93016,8.526131 -16.72919,21.779358 -3.04581,6.96094 -6.48476,15.39844 -7.64214,18.75 -1.15737,3.35156 -2.93715,7.96694 -3.95509,10.2564 -1.2429,2.79546 -1.89866,6.49046 -1.99656,11.25 -0.14073,6.84192 0.005,7.34707 4.2033,14.58735 2.392,4.125 4.83936,9.04828 5.43858,10.94063 0.59923,1.89235 1.74524,3.98484 2.54669,4.64999 0.80144,0.66513 2.40094,3.3356 3.55444,5.93436 4.79724,10.80791 9.2052,13.58467 22.91329,14.43404 8.81319,0.54608 9.80984,0.79428 10.47843,2.60953 0.52969,1.43809 0.21706,2.56617 -1.1042,3.98438 -1.8342,1.96878 -2.10495,1.97832 -56.14858,1.97832 -52.665701,0 -54.334703,-0.0546 -55.272623,-1.80709 z m 41.682403,-1.53878 c 15.25139,-0.22617 16.57871,-0.35553 16.17149,-1.57601 -0.28463,-0.85307 -2.79248,-1.09876 -9.21875,-0.90314 -4.85525,0.14781 -9.428481,-0.13339 -10.162721,-0.62488 -1.095666,-0.73342 -1.303857,-4.53499 -1.161347,-21.20603 l 0.173634,-20.31242 3.593728,-7.65645 c 1.976546,-4.21104 4.564426,-10.39864 5.750836,-13.7502 1.18643,-3.35156 3.10658,-7.09498 4.26702,-8.3187 2.32167,-2.44829 4.73841,-1.98487 3.34398,0.64122 -2.27535,4.28512 -11.45119,29.45291 -10.92865,29.97546 0.32989,0.32989 1.41865,0.0884 2.41945,-0.53659 1.0008,-0.62501 2.37541,-1.13639 3.0547,-1.13639 1.68561,0 6.30785,5.1113 9.7497,10.78125 5.22754,8.61164 12.47818,21.61856 12.47818,22.38459 0,0.41644 0.84375,1.82983 1.875,3.14084 2.91375,3.70424 2.40705,5.73128 -1.88975,7.55989 l -3.76474,1.60218 15.17573,0.19087 c 8.34665,0.10498 15.84157,-0.1986 16.65537,-0.67462 0.98727,-0.57748 -1.22459,-0.87497 -6.64681,-0.89399 -9.658,-0.0339 -11.0923,-0.46767 -11.0923,-3.35473 0,-1.20347 -0.39498,-2.43223 -0.87773,-2.73059 -2.25208,-1.39186 -15.53166,-23.36234 -23.93046,-39.5919 -2.38946,-4.61731 -2.44588,-5.02686 -1.09784,-7.96875 0.7816,-1.70571 1.89242,-4.99973 2.4685,-7.32004 1.42228,-5.72865 5.51201,-16.71711 7.50182,-20.15625 0.89498,-1.54687 1.89618,-4.28906 2.22488,-6.09375 0.69534,-3.81784 3.4973,-11.41927 6.91141,-18.75 1.32077,-2.835938 2.96781,-6.510765 3.6601,-8.166283 1.18714,-2.8389 8.3725,-8.682519 15.55484,-12.650236 1.59075,-0.878773 5.94365,-4.559106 9.67311,-8.178518 7.74505,-7.516497 9.79477,-11.940787 9.77255,-21.093843 -0.0136,-5.591116 -0.52924,-7.115885 -4.12827,-12.207018 -1.6209,-2.292896 -1.68276,-2.994915 -0.62685,-7.114839 0.92384,-3.604647 0.93244,-5.63918 0.0406,-9.624167 -1.08634,-4.85432 -1.37922,-5.206491 -7.44038,-8.9466642 C 153.1548,4.3720203 151.35998,3.75 147.22193,3.75 c -5.86913,0 -13.84527,3.3097027 -14.68452,6.0933488 -0.31098,1.0314702 -1.292,2.7191512 -2.18006,3.7504012 -0.88806,1.03125 -2.12896,4.794791 -2.75755,8.363425 -1.75706,9.975038 -1.18939,9.559299 -13.88606,10.169516 -10.85552,0.521729 -15.079937,1.641443 -21.264798,5.636396 -3.964008,2.560451 -11.713391,10.754736 -13.493484,14.268163 -1.044975,2.0625 -3.008693,5.015625 -4.363817,6.5625 -1.968553,2.247103 -9.310154,16.34026 -14.651261,28.125 -1.073663,2.368954 -6.074291,16.85131 -8.555823,24.77858 -1.037945,3.31573 -2.930889,7.68194 -4.206544,9.70272 -1.275654,2.02076 -3.283895,5.42508 -4.462757,7.56516 -1.178862,2.14007 -3.536282,6.42229 -5.23871,9.51604 -6.092734,11.07206 -6.787202,12.24179 -9.740434,16.40625 -1.645451,2.32031 -3.50364,5.27344 -4.129308,6.5625 -0.625668,1.28906 -3.254492,6.14062 -5.841832,10.78125 -7.31349,13.1174 -9.7460731,18.17515 -9.0677775,18.85344 1.6619795,1.66199 21.2899815,0.44609 23.5881345,-1.4612 0.683024,-0.56686 3.194531,-4.851 5.581126,-9.52032 2.386594,-4.66931 5.389851,-9.86705 6.673904,-11.55053 1.284052,-1.68348 2.334641,-3.49039 2.334641,-4.01535 0,-0.52495 1.265625,-2.54705 2.8125,-4.49354 1.546875,-1.94649 2.8125,-3.94979 2.8125,-4.45178 0,-1.07926 12.578406,-17.21254 15.533256,-19.92322 1.903855,-1.74653 8.079921,-9.27282 13.529244,-16.48703 1.289062,-1.70656 5.470738,-6.07793 9.292613,-9.71415 C 108.00369,92.951986 122.8125,76.738495 122.8125,74.278867 c 0,-0.395238 1.0595,-2.277802 2.35444,-4.183476 3.17733,-4.675873 5.47978,-13.973867 4.71809,-19.053157 -0.46822,-3.122278 -1.49185,-4.833438 -4.61172,-7.709244 -4.95518,-4.567521 -10.0646,-5.626343 -16.9996,-3.522815 -6.08429,1.84549 -11.71121,1.896554 -11.71121,0.10628 0,-1.570511 3.72182,-2.877263 12.35795,-4.338942 5.28328,-0.894205 7.10615,-0.815465 11.64093,0.502832 2.95721,0.859682 6.74576,2.607259 8.419,3.883506 6.36811,4.857192 7.85869,16.044881 3.63337,27.270524 -4.25823,11.313075 -7.33481,15.434594 -24.45015,32.7545 -2.64283,2.674415 -5.78062,6.267095 -6.97288,7.983725 -1.192245,1.71663 -3.899961,4.80865 -6.017145,6.87115 -2.11718,2.0625 -6.333485,6.91406 -9.369566,10.78125 -3.036082,3.86719 -7.552434,9.40846 -10.036338,12.31395 l -4.51619,5.28269 5.222503,0.65251 c 5.93987,0.74213 11.541841,2.8269 12.131888,4.51485 0.597347,1.70884 3.269128,39.44522 3.269128,46.17334 l 0,5.84007 -4.165144,1.0488 C 85.419027,202.02804 79.30184,202.5 74.116106,202.5 c -6.374917,0 -9.428606,0.34255 -9.428606,1.05767 0,0.77317 3.59347,0.84248 13.359375,0.25768 7.347656,-0.44001 16.734375,-0.85005 20.859375,-0.91122 z M 149.29687,21.124805 c -3.17899,-1.405193 -3.42816,-2.108977 -2.46018,-6.948873 0.45781,-2.289064 1.23006,-3.10016 3.51556,-3.692392 6.6801,-1.7309872 10.09562,1.51275 8.47978,8.053316 -0.73732,2.984505 -1.27367,3.526521 -3.67578,3.714567 -1.54688,0.121096 -4.18359,-0.385883 -5.85938,-1.126618 z M 154.21875,15 c -0.45358,-0.733915 -0.99288,-0.788373 -1.61788,-0.163373 -0.51563,0.515625 -0.63132,1.432892 -0.25712,2.038373 0.45358,0.733915 0.99288,0.788373 1.61788,0.163373 0.51563,-0.515625 0.63132,-1.432892 0.25712,-2.038373 z M 161.25,202.5 c 0,-0.51563 -0.65771,-0.9375 -1.46158,-0.9375 -0.80387,0 -1.20085,0.42187 -0.88217,0.9375 0.31868,0.51562 0.97639,0.9375 1.46158,0.9375 0.48519,0 0.88217,-0.42188 0.88217,-0.9375 z m -34.6875,-4.68587 c 1.2062,-0.7781 1.01802,-1.60961 -1.32274,-5.84501 -1.50094,-2.71583 -3.84694,-7.13681 -5.21335,-9.82442 -1.36641,-2.68761 -3.14706,-5.64073 -3.957,-6.5625 -0.80995,-0.92177 -1.73346,-2.53554 -2.05224,-3.58615 -0.31877,-1.05062 -2.67541,-3.97452 -5.23698,-6.49756 l -4.65738,-4.58736 -2.36603,2.553 c -1.30133,1.40414 -2.641374,3.65001 -2.977889,4.9908 -0.816685,3.25392 0.34905,22.96068 1.544159,26.10405 l 0.94652,2.48953 8.66208,-0.59366 c 6.69001,-0.4585 9.1957,-0.28574 11.00585,0.75882 2.8788,1.66124 3.82417,1.76216 5.625,0.60046 z M 191.48465,26.832535 c 4.51187,-0.06258 8.20328,-0.375364 8.20312,-0.695072 -6.3e-4,-1.336847 -8.61274,-2.798707 -17.5397,-2.977272 -7.82747,-0.156572 -9.85406,0.09099 -11.12655,1.359221 -2.8159,2.806457 -0.74454,3.873995 6.04978,3.117938 3.41547,-0.380065 9.90148,-0.742232 14.41335,-0.804815 z"
     id="path3366"
     inkscape:connector-curvature="0" />
</svg>
